<?xml version="1.0" encoding="UTF-8"?>
<svg id="_圖層_2" data-name="圖層 2" xmlns="http://www.w3.org/2000/svg" viewBox="0 0 125.41 122.4">
  <defs>
    <style>
      .cls-1 {
        fill: #fff;
      }
    </style>
  </defs>
  <g id="_圖層_1-2" data-name="圖層 1">
    <path class="cls-1" d="M40.62.19C15.58,9.77-.7,34.11.02,60.91c.85,32.85,27.18,59.82,60.01,61.41,31.72,1.59,59.69-20.61,65.33-51.86.11-.61.03-1.24-.24-1.79-.7-1.42-2.42-2.01-3.84-1.32-8,3.89-16.82,5.77-25.71,5.47-29.23-1.03-52.54-24.76-53.05-54-.08-5.12.56-10.23,1.91-15.18.17-.6.13-1.23-.09-1.81-.57-1.48-2.24-2.21-3.72-1.64h0Z"/>
  </g>
</svg>