<?xml version="1.0" encoding="UTF-8"?>
<svg id="_圖層_2" data-name="圖層 2" xmlns="http://www.w3.org/2000/svg" viewBox="0 0 26.49 25.71">
  <defs>
    <style>
      .cls-1 {
        fill: #eaeaea;
      }
    </style>
  </defs>
  <g id="_圖層_1-2" data-name="圖層 1">
    <path class="cls-1" d="M1.27,25.71c-.38,0-.68-.12-.92-.36-.59-.59-.28-1.48-.16-1.82l2.11-5.98s.01-.05.01-.06c0-.01,0-.03,0-.04l.07-.24c.04-.14.12-.27.23-.38,0,0,.02-.02.03-.03.17-.26.39-.5.69-.79l3.33-3.22s.06-.08.06-.13c0-.05-.02-.1-.06-.13L1.59,7.6c-.71-.68-1.39-1.42-1.39-2.33,0-.91.69-1.65,1.4-2.33l1.64-1.59C4.19.43,4.92.01,5.6.01s1.41.41,2.37,1.34l5.13,4.96s.08.05.13.05.09-.02.13-.05l5.1-4.94c.99-.95,1.74-1.38,2.44-1.38s1.46.43,2.44,1.38l1.71,1.65c.73.7,1.44,1.47,1.44,2.4s-.71,1.7-1.44,2.4l-5.05,4.89s-.06.08-.06.13.02.1.06.13l5.1,4.94c.7.68,1.39,1.42,1.39,2.33,0,.91-.69,1.65-1.39,2.33l-1.65,1.59c-.95.92-1.68,1.33-2.37,1.33s-1.41-.41-2.37-1.33l-5.15-4.99s-.08-.05-.13-.05-.09.02-.13.05l-3.4,3.29c-.28.28-.5.47-.79.65,0,0-.03.02-.03.02-.02.02-.04.03-.07.05l-.08.04s-.04.02-.05.03c-.12.1-.27.16-.42.18-.03,0-.15.02-.15.02-.01,0-.03,0-.04,0l-6.08,2.03c-.19.07-.55.19-.93.19ZM18.58,14.17s-.09.02-.13.05l-3.6,3.49s-.06.08-.06.13.02.1.06.13l5.1,4.94c.55.53.93.81,1.12.83,0,0,.01,0,.02,0,0,0,.01,0,.02,0,.19-.02.56-.3,1.11-.83l1.65-1.59c.49-.47.77-.81.83-.99.01-.04.01-.08,0-.12-.07-.19-.35-.52-.83-.99l-5.15-4.99s-.08-.05-.13-.05ZM3.38,20.18s-.03,0-.04,0c-.06.01-.11.06-.13.12l-1.08,3.05c-.02.07,0,.14.04.19.04.04.08.06.13.06.02,0,.04,0,.06,0l3.14-1.05c.06-.02.11-.07.12-.13s0-.13-.05-.17l-2.06-2s-.08-.05-.13-.05ZM17.47,4.88s-.09.02-.13.05l-3.47,3.36s-.02.03-.03.03l-5.14,4.97s-.03.03-.04.03l-4.09,3.95c-.32.31-.43.44-.51.6-.01.02-.02.05-.02.08-.02.29.16.47.71,1l2.15,2.09c.5.48.71.64.93.68.01,0,.02,0,.03,0,.02,0,.04,0,.06,0l.24-.08s.03-.01.04-.02c.12-.08.23-.17.45-.4l12.75-12.33s.06-.08.06-.13-.02-.1-.06-.13l-3.81-3.69s-.08-.05-.13-.05ZM5.57,1.79c-.19.02-.56.31-1.1.84l-1.64,1.59c-.49.47-.77.8-.84.99-.01.04-.01.09,0,.13.07.19.35.52.84.99l5.13,4.97s.08.05.13.05.09-.02.13-.05l3.6-3.48s.06-.08.06-.13-.02-.1-.06-.13L6.73,2.63c-.55-.53-.92-.82-1.11-.84,0,0-.01,0-.02,0,0,0-.02,0-.02,0ZM20.9,1.78c-.07,0-.3,0-1.21.88l-.81.78s-.06.08-.06.13.02.1.06.13l3.81,3.69s.08.05.13.05.09-.02.13-.05l.86-.83c.84-.81.88-1.03.89-1.1,0-.03,0-.06,0-.09-.05-.18-.37-.56-.89-1.06l-1.71-1.65c-.91-.88-1.13-.88-1.2-.88Z"/>
  </g>
</svg>