<?xml version="1.0" encoding="UTF-8"?>
<svg id="_圖層_2" data-name="圖層 2" xmlns="http://www.w3.org/2000/svg" viewBox="0 0 32.38 28.3">
  <defs>
    <style>
      .cls-1 {
        fill: #eaeaea;
      }
    </style>
  </defs>
  <g id="_圖層_1-2" data-name="圖層 1">
    <g>
      <path class="cls-1" d="M31.07,11.96L17.66.62c-.99-.83-1.95-.83-2.93,0L1.3,11.96c-.84.71-1.3,1.61-1.3,2.54,0,.44.1.87.3,1.28L14.38,3.89c.08-.07.15-.12.23-.18,0,0,0,0,0,0l1.57-1.33,1.56,1.31c.08.06.17.13.26.2l14.07,11.89c.2-.41.3-.84.3-1.28,0-.93-.46-1.83-1.3-2.54Z"/>
      <path class="cls-1" d="M25.09,12.95v13.09h-4.25v-8.72c0-3.08-1.4-4.57-4.27-4.57h-.76c-2.87,0-4.27,1.5-4.27,4.57v8.72h-4.25v-13.09s0-.06,0-.09l-2.25,1.9v12.41c0,.62.51,1.13,1.13,1.13h6.51s0,0,0,0h7.03s0,0,0,0h6.51c.62,0,1.13-.51,1.13-1.13v-12.41l-2.25-1.9s0,.06,0,.09ZM15.81,15.01h.76c1.58,0,2.01.5,2.01,2.32v8.72h-4.78v-8.72c0-1.82.43-2.32,2.01-2.32Z"/>
    </g>
  </g>
</svg>