<?xml version="1.0" encoding="UTF-8"?>
<svg id="_圖層_2" data-name="圖層 2" xmlns="http://www.w3.org/2000/svg" viewBox="0 0 26.98 27.96">
  <defs>
    <style>
      .cls-1 {
        fill: #eaeaea;
      }
    </style>
  </defs>
  <g id="_圖層_1-2" data-name="圖層 1">
    <g>
      <path class="cls-1" d="M13.49,16.94c-.34,0-.7-.11-1.09-.33L1.24,10.25C.16,9.64,0,8.87,0,8.47c0-.4.16-1.17,1.24-1.78L12.4.33c.39-.22.74-.33,1.09-.33s.7.11,1.09.33l11.17,6.36c1.07.61,1.24,1.38,1.24,1.78s-.16,1.17-1.23,1.78l-11.17,6.36c-.39.22-.74.33-1.09.33ZM13.47,1.98s-.05,0-.07.02c0,0-11.09,6.31-11.09,6.31-.06.03-.09.09-.09.16s.04.13.09.16l11.09,6.31s.06.02.09.02.06,0,.09-.02c0,0,11.09-6.31,11.09-6.31.06-.03.09-.09.09-.16s-.04-.13-.09-.16L13.62,2.02s-.09-.04-.14-.04Z"/>
      <path class="cls-1" d="M13.49,22.45c-.34,0-.7-.11-1.09-.33L1.24,15.76c-1.08-.61-1.24-1.38-1.24-1.78,0-.24.06-.6.31-.97l11.57,6.59c.09.05.19.1.28.15l1.21.69s.09.04.14.04c.03,0,.06,0,.09-.02l1.25-.71c.08-.03.17-.08.27-.14l11.56-6.58c.26.37.31.72.31.97,0,.4-.16,1.17-1.23,1.78l-11.17,6.36c-.39.22-.74.33-1.09.33Z"/>
      <path class="cls-1" d="M13.49,27.96c-.34,0-.7-.11-1.09-.33L1.24,21.28c-1.08-.61-1.24-1.38-1.24-1.78,0-.24.06-.6.31-.97l11.57,6.59c.09.05.19.1.28.15l1.21.69s.09.04.14.04c.03,0,.06,0,.09-.02l1.25-.71c.08-.03.17-.08.27-.14l11.56-6.58c.26.37.31.72.31.97,0,.4-.16,1.17-1.23,1.78l-11.17,6.36c-.39.22-.74.33-1.09.33Z"/>
    </g>
  </g>
</svg>